Cover :: 
http://i.minus.com/ib0iAoEUDMK7Px.png

Screen ::
 
http://i.minus.com/iLVrLwGfmWnsM.png
 
http://i.minus.com/i0Fe9JHMTQmb5.png
 
http://i.minus.com/ibciXJPXhoh0bm.png
 
http://i.minus.com/ixw0knCljsfIM.png
 
http://i.minus.com/ibzStqCiisIZdG.png
 
http://i.minus.com/iTyCeSpRUldOV.png
 
http://i.minus.com/inazwY3aETHNC.png
 
http://i.minus.com/i1By14TqsGCxf.png


General ::
Format                           : AVI
Format/Info                      : Audio Video Interleave
File size                        : 75.6 MiB
Duration                         : 3mn 19s
Overall bit rate                 : 3 179 Kbps


Video Info ::
ID                               : 0
Format                           : AVC
Format/Info                      : Advanced Video Codec
Format profile                   : High@L5.1
Format settings, CABAC           : Yes
Format settings, ReFrames        : 2 frames
Codec ID                         : H264
Duration                         : 10s 0ms
Bit rate                         : 2 846 Kbps
Width                            : 1 280 pixels
Height                           : 544 pixels
Display aspect ratio             : 2.35:1
Frame rate                       : 30.000 fps
Color space                      : YUV
Chroma subsampling               : 4:2:0
Bit depth                        : 8 bits
Scan type                        : Progressive
Bits/(Pixel*Frame)               : 0.136
Stream size                      : 67.7 MiB (90%)


Audio Info ::
ID                               : 1
Format                           : MPEG Audio
Format version                   : Version 1
Format profile                   : Layer 3
Codec ID                         : 55
Codec ID/Hint                    : MP3
Duration                         : 3mn 19s
Bit rate mode                    : Constant
Bit rate                         : 320 Kbps
Channel(s)                       : 2 channels
Sampling rate                    : 44.1 KHz
Compression mode                 : Lossy
Stream size                      : 7.61 MiB (10%)